<?xml version="1.0" encoding="UTF-8"?>
<svg width="20px" height="20px" viewBox="0 0 20 20" version="1.1" xmlns="http://www.w3.org/2000/svg" xmlns:xlink="http://www.w3.org/1999/xlink">
    <title>icon/tab_捕鱼</title>
    <defs>
        <rect id="path-1" x="0" y="0" width="20" height="20"></rect>
    </defs>
    <g id="icon/tab_捕鱼" stroke="none" stroke-width="1" fill="none" fill-rule="evenodd">
        <g id="编组">
            <mask id="mask-2" fill="white">
                <use xlink:href="#path-1"></use>
            </mask>
            <g id="蒙版"></g>
        </g>
        <path d="M17.044806,10.2335609 C17.044806,8.81827866 17.5446174,7.48544831 18.4150372,6.57252753 C18.4922552,6.481563 18.5170064,6.35716415 18.4804887,6.24357004 C18.453809,6.13738842 18.3579115,6.06326987 18.2484334,6.06421596 C17.3797136,6.12371731 16.5483947,6.44332459 15.8607291,6.98138685 C15.3184824,7.40429006 14.8892316,7.95472391 14.6112006,8.58367332 C14.0209011,7.68622873 13.2178962,6.94863224 12.2736474,6.43652445 C12.1769411,6.38327049 12.079169,6.33197552 11.9803907,6.28267095 C12.8355102,5.31364889 14.2975435,4.571582 14.2975435,4.57158198 C14.2975435,4.57158197 11.0623698,2.70153942 9.80774128,2.81204194 C8.93392139,2.89194376 7.64869213,4.57923216 6.95677638,5.58735511 C6.64325598,5.64289379 6.33330491,5.7169755 6.02855525,5.80921017 C5.30351944,6.02580203 4.61563952,6.35139853 3.9885088,6.77483215 C3.39212218,7.17791728 2.8669993,7.67747346 2.43467344,8.2530158 C2.00965206,8.81690624 1.69632376,9.45683456 1.51155243,10.1383587 C1.49614919,10.1980152 1.49614919,10.2606064 1.51155243,10.3202628 C1.69855669,11.0045284 2.01136381,11.644593 2.43382342,12.2047557 C2.86680379,12.779832 3.39250162,13.278814 3.98935883,13.6812394 C4.2647651,13.8699437 5.73810054,14.6655618 7.21348221,14.9129174 C7.48803846,15.5784826 7.83229631,16.5534547 7.8059457,17.1926693 C7.8059457,17.1926693 8.80981856,16.2406476 9.31047995,16.257648 C9.66748808,16.2686983 9.12942584,15.4552297 8.79026811,14.9860191 C9.44789978,14.9571947 10.0997017,14.8496074 10.7317123,14.6655618 C11.0989207,15.3064764 11.9217394,16.5551548 12.7479582,16.5551548 C12.7479582,16.5551548 13.8113324,14.8007148 14.4717974,14.8007148 C14.4717974,14.8007148 13.4500742,14.1887009 13.134717,13.4619344 C13.714034,13.0240172 14.2125316,12.4884127 14.6078006,11.8791983 C14.8858014,12.509351 15.3157027,13.0607462 15.859029,13.4840349 C16.545154,14.0247792 17.3778809,14.3469722 18.2492834,14.4088559 C18.3589048,14.4093969 18.4547174,14.334993 18.4813387,14.2286518 C18.5213564,14.1135085 18.4959952,13.9857271 18.4150372,13.8945942 C17.5446174,12.9816734 17.044806,11.6471431 17.044806,10.2335609 Z M5.095234,9.34614068 C4.56495833,9.33052583 4.14318404,8.89614888 4.14318404,8.36564336 C4.14318404,7.83513784 4.56495833,7.40076088 5.095234,7.38514604 C5.62550967,7.40076088 6.04728396,7.83513784 6.04728396,8.36564336 C6.04728396,8.89614888 5.62550967,9.33052583 5.095234,9.34614068 Z" id="形状" fill="#B1B4BF" fill-rule="nonzero"></path>
    </g>
</svg>