<svg xmlns="http://www.w3.org/2000/svg" xmlns:xlink="http://www.w3.org/1999/xlink" width="14" height="14" viewBox="0 0 14 14"><defs><rect id="a" width="14" height="14" x="0" y="0"/></defs><g fill="none" fill-rule="evenodd"><mask id="b" fill="#fff"><use xlink:href="#a"/></mask><path fill="#9E9EA6" fill-rule="nonzero" d="M8.97344104,1.80339166 L11.9010737,2.78352002 C12.7357202,3.06294739 13.1910941,3.96102139 12.9232701,4.79946322 L10.8298828,11.3527931 C10.5527434,12.1973692 9.64341325,12.6573674 8.79883716,12.380228 L5.6887654,11.3594839 C4.84859317,11.0692673 4.40276603,10.1529062 4.69298262,9.31273392 L6.94122248,2.80411654 C7.22948394,1.96960438 8.13621781,1.52310164 8.97344104,1.80339166 Z M6.11281979,1.93910266 L6.22208991,2.04465152 L3.70283182,9.95554987 L1.18868857,5.22595167 C0.773618111,4.44529147 1.06598859,3.47597598 1.84349507,3.05502765 L4.28437333,1.73351633 C4.89273885,1.4041423 5.62050448,1.50686864 6.11281979,1.93910266 Z M8.24735503,5.56648986 C7.86607563,5.58049546 7.53132884,5.82418102 7.40083566,6.1827081 C7.306791,6.44036799 7.33057097,6.72632073 7.46588404,6.96490696 L8.12641852,8.17120287 C8.20225521,8.30969753 8.36735125,8.3727378 8.51619477,8.32003503 L9.81204834,7.8614315 C10.0969013,7.77750724 10.3247607,7.56294569 10.4256444,7.28364846 C10.5561376,6.92512138 10.4563425,6.5232755 10.1732682,6.26746491 C9.89019382,6.01165432 9.48032516,5.95292061 9.13680412,6.11894105 C8.98036534,5.77095011 8.62863443,5.55248425 8.24735503,5.56648986 Z" mask="url(#b)"/></g></svg>